<svg width="22" height="22" fill="none" xmlns="http://www.w3.org/2000/svg"><path fill-rule="evenodd" clip-rule="evenodd" d="M21.083 11c0 5.569-4.514 10.083-10.083 10.083S.917 16.57.917 11 5.43.917 11 .917 21.083 5.43 21.083 11zM22 11c0 6.075-4.925 11-11 11S0 17.075 0 11 4.925 0 11 0s11 4.925 11 11zM5.328 7.276V6.245c.54 0 1 .129 1.354.387.354.257.574.62.709.999.206.574.26 1.204.314 1.827.017.198.034.395.056.59.09.807.256 1.532.677 2.03.367.433.95.773 2.046.854V7.276H9.97V6.245h2.062v1.031h-.515v5.656c1.097-.08 1.69-.42 2.062-.854.427-.5.598-1.225.693-2.03.024-.203.042-.41.06-.616.056-.615.112-1.236.31-1.801.133-.377.345-.74.694-1 .348-.26.805-.386 1.337-.386v1.031c-.37 0-.582.087-.725.193-.143.107-.25.264-.339.516-.127.36-.176.882-.232 1.47-.022.232-.045.475-.074.721-.102.87-.286 1.821-.934 2.579-.576.672-1.509 1.117-2.852 1.208v2.594h1.03v1.032H9.454v-1.032h1.031v-2.594c-1.341-.09-2.266-.534-2.836-1.208-.642-.76-.821-1.71-.918-2.579a29.8 29.8 0 01-.065-.658c-.057-.613-.108-1.162-.241-1.533-.089-.25-.206-.407-.355-.516-.149-.108-.356-.193-.74-.193z" fill="#4F4F4F"/></svg>