<svg class="marks_a" width="317" height="318" fill="none" xmlns="http://www.w3.org/2000/svg"><path fill-rule="evenodd" clip-rule="evenodd" d="M167.62.384V0l-.384.007C142.549.47 100.261 7.591 64.387 28.13 28.497 48.676-1.002 82.674.027 136.855c.756 39.888 15.827 62.522 36.159 72.537 20.303 10.001 45.744 7.361 67.147-3.059 21.401-10.42 38.858-28.662 43.131-49.983 4.281-21.358-4.689-45.671-35.867-68.147-8.187-5.903-21.366-8.923-34.155-8.497-12.364.412-24.483 4.05-31.423 11.554.923-23.878 26.237-72.783 122.267-83.938l.334-.039V.384zM.78 136.84C-.243 83.007 29.04 49.233 64.76 28.782 100.314 8.428 142.22 1.294 166.866.768v5.845C69.472 18.034 44.473 68.332 44.24 92.277l-.01 1.043.674-.795c6.606-7.794 18.867-11.643 31.563-12.066 12.688-.423 25.683 2.582 33.69 8.355 31.017 22.361 39.775 46.405 35.569 67.388-4.214 21.02-21.459 39.101-42.723 49.453-21.262 10.352-46.45 12.93-66.484 3.061-20.008-9.855-34.987-32.18-35.74-71.875zm315.973-44.567v-.384l-.383.008c-24.687.461-66.975 7.583-102.849 28.121-35.891 20.547-65.389 54.545-64.361 108.726.756 39.888 15.828 62.522 36.159 72.537 20.304 10.001 45.744 7.361 67.147-3.059 21.402-10.419 38.858-28.662 43.132-49.983 4.281-21.357-4.69-45.67-35.867-68.147-8.187-5.902-21.366-8.923-34.156-8.496-12.363.412-24.482 4.049-31.423 11.553.924-23.877 26.237-72.782 122.268-83.938l.333-.038v-6.9zM149.913 228.73c-1.021-53.834 28.26-87.608 63.982-108.058C249.448 100.319 291.353 93.184 316 92.658v5.845c-97.394 11.422-122.394 61.719-122.626 85.665l-.01 1.042.674-.795c6.605-7.793 18.867-11.643 31.562-12.066 12.689-.423 25.684 2.583 33.69 8.355 31.018 22.361 39.775 46.405 35.569 67.388-4.213 21.021-21.459 39.102-42.722 49.454-21.262 10.351-46.45 12.929-66.485 3.06-20.007-9.855-34.986-32.179-35.739-71.875zm150.448 47.215c.208 0 .376.169.376.377 0 4.065-2.69 8.642-6.039 12.695-3.365 4.071-7.464 7.692-10.415 9.855-3.608 2.647-7.965 5.472-12.552 7.663-4.584 2.19-9.421 3.758-13.984 3.864a.377.377 0 11-.017-.753c4.413-.102 9.141-1.624 13.676-3.79 4.531-2.165 8.847-4.962 12.432-7.591 2.907-2.132 6.959-5.711 10.279-9.728 3.336-4.035 5.867-8.434 5.867-12.215 0-.208.169-.377.377-.377zm8.451 20.445a.376.376 0 00-.753 0c0 6.146-2.966 10.146-7.755 14.418-5.812 5.184-13.216 6.295-21.243 6.295a.377.377 0 000 .753c8.076 0 15.719-1.111 21.744-6.486 4.853-4.329 8.007-8.517 8.007-14.98z" fill="#4F4F4F"/></svg>