<svg width="86" height="86" fill="none" xmlns="http://www.w3.org/2000/svg"><path fill-rule="evenodd" clip-rule="evenodd" d="M45.459 1V.898L45.357.9c-6.563.123-17.804 2.016-27.34 7.476C8.474 13.838.633 22.876.906 37.279c.201 10.603 4.207 16.62 9.612 19.282 5.398 2.659 12.16 1.957 17.85-.813 5.69-2.77 10.33-7.62 11.466-13.287 1.138-5.678-1.247-12.14-9.535-18.116-2.176-1.569-5.68-2.372-9.08-2.258-3.286.11-6.507 1.076-8.353 3.07.246-6.347 6.975-19.347 32.503-22.313l.089-.01V1zM1.107 37.275C.836 22.964 8.62 13.985 18.116 8.549c9.45-5.41 20.59-7.307 27.143-7.447v1.554C19.368 5.692 12.722 19.063 12.66 25.428l-.002.277.179-.21c1.756-2.073 5.015-3.096 8.39-3.208 3.373-.113 6.828.686 8.956 2.22 8.246 5.945 10.574 12.337 9.456 17.915-1.12 5.588-5.705 10.394-11.357 13.146-5.652 2.752-12.348 3.437-17.674.814-5.319-2.62-9.3-8.555-9.501-19.107zm83.996-11.848v-.102l-.102.002c-6.562.123-17.804 2.016-27.34 7.476-9.541 5.462-17.383 14.5-17.11 28.903.201 10.604 4.208 16.62 9.613 19.283 5.397 2.658 12.16 1.957 17.85-.813 5.689-2.77 10.33-7.62 11.466-13.287 1.138-5.678-1.247-12.141-9.535-18.116-2.176-1.57-5.68-2.372-9.08-2.259-3.287.11-6.508 1.077-8.353 3.071.245-6.347 6.975-19.348 32.503-22.313l.088-.01v-1.835zM40.752 61.703c-.272-14.31 7.512-23.289 17.008-28.725 9.451-5.411 20.591-7.308 27.143-7.447v1.553C59.013 30.12 52.367 43.49 52.305 49.856l-.003.277.18-.211c1.755-2.072 5.015-3.095 8.39-3.208 3.373-.112 6.827.687 8.956 2.221C78.073 54.88 80.4 61.271 79.283 66.85c-1.12 5.588-5.704 10.395-11.357 13.147-5.652 2.751-12.348 3.437-17.674.813-5.319-2.62-9.3-8.554-9.5-19.107zm39.994 12.552a.1.1 0 01.1.1c0 1.08-.715 2.297-1.606 3.375a16.494 16.494 0 01-2.768 2.62c-.96.703-2.118 1.454-3.337 2.037-1.218.582-2.504.999-3.717 1.027a.1.1 0 11-.005-.2c1.173-.028 2.43-.432 3.636-1.008 1.204-.575 2.352-1.319 3.305-2.018a16.297 16.297 0 002.732-2.586c.887-1.073 1.56-2.242 1.56-3.247a.1.1 0 01.1-.1zm2.247 5.435a.1.1 0 10-.2 0c0 1.633-.789 2.697-2.062 3.833-1.545 1.377-3.513 1.673-5.647 1.673a.1.1 0 100 .2c2.147 0 4.178-.295 5.78-1.724 1.29-1.15 2.129-2.264 2.129-3.982z" fill="#4F4F4F"/></svg>