<svg xmlns="http://www.w3.org/2000/svg" width="228" height="228" viewBox="0 0 171 171"><path d="M90.418.207V0l-.207.004c-13.316.25-36.125 4.078-55.477 15.121C15.371 26.175-.539 44.457.016 73.594.422 95.043 8.55 107.21 19.52 112.598c10.953 5.379 24.675 3.957 36.222-1.645 11.543-5.605 20.961-15.414 23.266-26.879C81.316 72.59 76.477 59.516 59.66 47.43c-4.418-3.172-11.527-4.797-18.426-4.57-6.668.222-13.207 2.18-16.949 6.214.496-12.84 14.152-39.136 65.953-45.136l.18-.02zM.422 73.586c-.55-28.95 15.242-47.113 34.512-58.11C54.114 4.532 76.719.697 90.012.415v3.14C37.477 9.7 23.988 36.747 23.863 49.622l-.004.559.364-.426c3.562-4.191 10.175-6.262 17.027-6.488 6.844-.227 13.852 1.386 18.172 4.492C76.152 59.78 80.879 72.71 78.609 83.996c-2.273 11.3-11.574 21.024-23.046 26.594-11.47 5.566-25.055 6.95-35.864 1.644C8.906 106.934.83 94.93.422 73.586zm170.445-23.969v-.203l-.207.004c-13.316.246-36.129 4.078-55.48 15.121-19.36 11.047-35.274 29.332-34.72 58.465.411 21.45 8.54 33.621 19.509 39.008 10.949 5.375 24.676 3.957 36.219-1.649 11.546-5.601 20.96-15.41 23.265-26.875 2.313-11.484-2.527-24.558-19.348-36.644-4.414-3.176-11.523-4.801-18.421-4.57-6.672.222-13.207 2.175-16.954 6.21.5-12.836 14.157-39.136 65.957-45.132l.18-.024zm-90 73.38c-.55-28.95 15.246-47.11 34.516-58.106 19.176-10.946 41.781-14.782 55.078-15.067v3.145c-52.54 6.14-66.024 33.187-66.149 46.066l-.003.559.363-.426c3.562-4.191 10.176-6.262 17.023-6.488 6.844-.23 13.856 1.386 18.176 4.492 16.73 12.023 21.453 24.953 19.184 36.234-2.27 11.305-11.575 21.028-23.043 26.594-11.469 5.566-25.059 6.953-35.864 1.648-10.793-5.3-18.875-17.304-19.28-38.652zm81.156 25.39c.114 0 .204.09.204.203 0 2.183-1.45 4.644-3.258 6.824-1.813 2.191-4.028 4.137-5.617 5.3-1.946 1.423-4.297 2.942-6.77 4.122-2.473 1.176-5.082 2.02-7.547 2.078a.207.207 0 01-.207-.2c0-.109.086-.202.2-.206 2.382-.055 4.929-.871 7.378-2.04 2.442-1.163 4.77-2.667 6.707-4.081 1.567-1.145 3.754-3.07 5.543-5.23 1.801-2.169 3.164-4.536 3.164-6.567 0-.113.094-.203.203-.203zm4.559 10.992a.2.2 0 00-.203-.2.2.2 0 00-.203.2c0 3.305-1.598 5.457-4.184 7.754-3.133 2.789-7.129 3.387-11.457 3.387a.2.2 0 100 .402c4.356 0 8.48-.598 11.73-3.488 2.618-2.325 4.317-4.579 4.317-8.055zm0 0" fill-rule="evenodd" fill="#4f4f4f"/></svg>